<svg width="64" height="64" viewBox="0 0 64 64" fill="none" xmlns="http://www.w3.org/2000/svg">
<g id="real-estate 1" opacity="0.5">
<g id="Layer 10">
<path id="Vector" d="M59.3 56.16C60.3442 55.9316 61.2787 55.3527 61.9482 54.5194C62.6177 53.6862 62.9818 52.6489 62.98 51.58C62.9778 50.453 62.5655 49.3653 61.82 48.52C61.9659 48.116 62.0404 47.6896 62.04 47.26C62.04 46.2655 61.6449 45.3116 60.9417 44.6084C60.2384 43.9051 59.2846 43.51 58.29 43.51C57.2954 43.51 56.3416 43.9051 55.6384 44.6084C54.9351 45.3116 54.54 46.2655 54.54 47.26C54.5396 47.6896 54.6141 48.116 54.76 48.52C54.0129 49.3643 53.6004 50.4527 53.6 51.58C53.5982 52.6489 53.9623 53.6862 54.6318 54.5194C55.3013 55.3527 56.2358 55.9316 57.28 56.16V60.5H52.98V19.06L28 8.84003V18.24L4.9 8.84003V60.48H1V62.48H62V60.48H59.3V56.16ZM55.62 51.58C55.6315 51.1941 55.727 50.8152 55.8996 50.4698C56.0723 50.1245 56.3181 49.8208 56.62 49.58L57.32 49.02L56.84 48.26C56.6733 47.9969 56.5804 47.6938 56.5708 47.3825C56.5613 47.0712 56.6354 46.763 56.7856 46.4901C56.9358 46.2172 57.1565 45.9897 57.4246 45.8312C57.6928 45.6727 57.9985 45.5891 58.31 45.5891C58.6215 45.5891 58.9272 45.6727 59.1954 45.8312C59.4635 45.9897 59.6842 46.2172 59.8344 46.4901C59.9846 46.763 60.0587 47.0712 60.0492 47.3825C60.0396 47.6938 59.9467 47.9969 59.78 48.26L59.3 49.02L59.98 49.58C60.3355 49.8665 60.612 50.239 60.7831 50.6623C60.9543 51.0855 61.0145 51.5455 60.958 51.9986C60.9015 52.4516 60.7302 52.8828 60.4603 53.251C60.1905 53.6193 59.831 53.9125 59.416 54.1029C59.001 54.2933 58.5443 54.3744 58.0891 54.3388C57.6339 54.3031 57.1954 54.1517 56.8152 53.899C56.4349 53.6462 56.1255 53.3006 55.9164 52.8947C55.7072 52.4889 55.6052 52.0364 55.62 51.58V51.58ZM30 11.82L51.04 20.4V56.6H30V11.82ZM28 23.42H24.8V25.42H28V30.38H24.8V32.38H28V37.34H24.8V39.34H28V45.14H24.8V47.14H28V52.64H18.5V51.14H21.48V49.14H18.5V43.84H21.48V41.84H18.5V36.54H21.48V34.54H18.5V29.26H21.48V27.26H18.5V22H21.48V20H18.5V16.56L28 20.42V23.42ZM14.4 54.62V60.48H12.18V54.64L14.4 54.62ZM16.4 54.62H18.5V60.48H16.34L16.4 54.62ZM20.56 54.62H22.72V60.48H20.5L20.56 54.62ZM16.56 15.72V52.64H6.9V11.82L16.56 15.72ZM6.9 54.64H10.18V60.5H6.9V54.64ZM24.66 60.5V54.64H28V60.5H24.66ZM29.94 60.5V58.62H50.98V60.5H29.94Z" fill="white"/>
<path id="Vector_2" d="M8.93994 25.8H12.4999V27.8H8.93994V25.8Z" fill="white"/>
<path id="Vector_3" d="M8.93994 30.38H12.4999V32.38H8.93994V30.38Z" fill="white"/>
<path id="Vector_4" d="M8.93994 34.96H12.4999V36.96H8.93994V34.96Z" fill="white"/>
<path id="Vector_5" d="M8.93994 39.54H12.4999V41.54H8.93994V39.54Z" fill="white"/>
<path id="Vector_6" d="M8.93994 44.12H12.4999V46.12H8.93994V44.12Z" fill="white"/>
<path id="Vector_7" d="M43.7598 25.8H47.3198V27.8H43.7598V25.8Z" fill="white"/>
<path id="Vector_8" d="M43.7598 30.38H47.3198V32.38H43.7598V30.38Z" fill="white"/>
<path id="Vector_9" d="M43.7598 34.96H47.3198V36.96H43.7598V34.96Z" fill="white"/>
<path id="Vector_10" d="M43.7598 39.54H47.3198V41.54H43.7598V39.54Z" fill="white"/>
<path id="Vector_11" d="M43.7598 44.12H47.3198V46.12H43.7598V44.12Z" fill="white"/>
<path id="Vector_12" d="M43.7598 48.7H47.3198V50.7H43.7598V48.7Z" fill="white"/>
<path id="Vector_13" d="M33.6001 25.8H37.1601V27.8H33.6001V25.8Z" fill="white"/>
<path id="Vector_14" d="M33.6001 30.38H37.1601V32.38H33.6001V30.38Z" fill="white"/>
<path id="Vector_15" d="M33.6001 34.96H37.1601V36.96H33.6001V34.96Z" fill="white"/>
<path id="Vector_16" d="M33.6001 39.54H37.1601V41.54H33.6001V39.54Z" fill="white"/>
<path id="Vector_17" d="M33.6001 44.12H37.1601V46.12H33.6001V44.12Z" fill="white"/>
<path id="Vector_18" d="M33.6001 48.7H37.1601V50.7H33.6001V48.7Z" fill="white"/>
<path id="Vector_19" d="M8.93994 48.7H12.4999V50.7H8.93994V48.7Z" fill="white"/>
</g>
</g>
</svg>
