<svg width="64" height="64" viewBox="0 0 64 64" fill="none" xmlns="http://www.w3.org/2000/svg">
<g id="stats 1" opacity="0.5">
<path id="Vector" d="M32 1C31.7348 1 31.4804 1.10536 31.2929 1.29289C31.1054 1.48043 31 1.73478 31 2V5.025C24.1942 5.28537 17.7375 8.10559 12.9216 12.9216C8.10559 17.7375 5.28537 24.1942 5.025 31H2C1.73478 31 1.48043 31.1054 1.29289 31.2929C1.10536 31.4804 1 31.7348 1 32C1 38.1312 2.81812 44.1248 6.22444 49.2227C9.63077 54.3206 14.4723 58.2939 20.1368 60.6403C25.8013 62.9866 32.0344 63.6005 38.0478 62.4043C44.0612 61.2082 49.5849 58.2557 53.9203 53.9203C58.2557 49.5849 61.2082 44.0612 62.4043 38.0478C63.6005 32.0344 62.9866 25.8013 60.6403 20.1368C58.2939 14.4723 54.3206 9.63077 49.2227 6.22444C44.1248 2.81812 38.1312 1 32 1V1ZM33 3.017C40.338 3.27933 47.3042 6.31174 52.4962 11.5038C57.6883 16.6958 60.7207 23.662 60.983 31H33V3.017ZM27 56.5C26.322 56.362 25.657 56.19 25 56V49H27V56.5ZM31 56.978C30.326 56.951 29.659 56.896 29 56.817V41H31V56.978ZM33 45H35V56.814C34.341 56.893 33.674 56.948 33 56.975V45ZM37 49H39V56C38.343 56.192 37.678 56.364 37 56.5V49ZM40 47H37V44C37 43.7348 36.8946 43.4804 36.7071 43.2929C36.5196 43.1054 36.2652 43 36 43H33V40C33 39.7348 32.8946 39.4804 32.7071 39.2929C32.5196 39.1054 32.2652 39 32 39H28C27.7348 39 27.4804 39.1054 27.2929 39.2929C27.1054 39.4804 27 39.7348 27 40V47H24C23.7348 47 23.4804 47.1054 23.2929 47.2929C23.1054 47.4804 23 47.7348 23 48V55.317C20.0634 54.1786 17.3677 52.4969 15.054 50.36L32 33.414L48.946 50.36C46.6323 52.4969 43.9366 54.1786 41 55.317V48C41 47.7348 40.8946 47.4804 40.7071 47.2929C40.5196 47.1054 40.2652 47 40 47ZM50.36 48.946L34.414 33H56.975C56.7416 38.934 54.3956 44.5893 50.36 48.946V48.946ZM31 7.025V31.586L13.64 48.946C10.3986 45.4409 8.22951 41.0804 7.38955 36.3808C6.54959 31.6811 7.07395 26.8392 8.90054 22.4283C10.7271 18.0175 13.7795 14.2224 17.6961 11.4925C21.6127 8.76264 26.2296 7.21227 31 7.025V7.025ZM32 61C24.4845 60.9911 17.2653 58.0684 11.8601 52.8466C6.45503 47.6249 3.28515 40.5107 3.017 33H5.025C5.28017 39.9837 8.23387 46.5962 13.2648 51.4467C18.2957 56.2971 25.0117 59.0074 32 59.0074C38.9883 59.0074 45.7043 56.2971 50.7352 51.4467C55.7661 46.5962 58.7198 39.9837 58.975 33H60.975C60.7081 40.5097 57.5398 47.6234 52.1361 52.8453C46.7324 58.0671 39.5145 60.9902 32 61V61Z" fill="white"/>
<path id="Vector_2" d="M46 18H48C48 17.2044 47.6839 16.4413 47.1213 15.8787C46.5587 15.3161 45.7956 15 45 15V14H43V15C42.2044 15 41.4413 15.3161 40.8787 15.8787C40.3161 16.4413 40 17.2044 40 18C40 18.7956 40.3161 19.5587 40.8787 20.1213C41.4413 20.6839 42.2044 21 43 21V23C42.7348 23 42.4804 22.8946 42.2929 22.7071C42.1054 22.5196 42 22.2652 42 22H40C40 22.7956 40.3161 23.5587 40.8787 24.1213C41.4413 24.6839 42.2044 25 43 25V26H45V25C45.7956 25 46.5587 24.6839 47.1213 24.1213C47.6839 23.5587 48 22.7956 48 22C48 21.2044 47.6839 20.4413 47.1213 19.8787C46.5587 19.3161 45.7956 19 45 19V17C45.2652 17 45.5196 17.1054 45.7071 17.2929C45.8946 17.4804 46 17.7348 46 18ZM46 22C46 22.2652 45.8946 22.5196 45.7071 22.7071C45.5196 22.8946 45.2652 23 45 23V21C45.2652 21 45.5196 21.1054 45.7071 21.2929C45.8946 21.4804 46 21.7348 46 22ZM43 19C42.7348 19 42.4804 18.8946 42.2929 18.7071C42.1054 18.5196 42 18.2652 42 18C42 17.7348 42.1054 17.4804 42.2929 17.2929C42.4804 17.1054 42.7348 17 43 17V19Z" fill="white"/>
<path id="Vector_3" d="M19 28H17C17 28.7956 17.3161 29.5587 17.8787 30.1213C18.4413 30.6839 19.2044 31 20 31V32H22V31C22.7956 31 23.5587 30.6839 24.1213 30.1213C24.6839 29.5587 25 28.7956 25 28C25 27.2044 24.6839 26.4413 24.1213 25.8787C23.5587 25.3161 22.7956 25 22 25V23C22.2652 23 22.5196 23.1054 22.7071 23.2929C22.8946 23.4804 23 23.7348 23 24H25C25 23.2044 24.6839 22.4413 24.1213 21.8787C23.5587 21.3161 22.7956 21 22 21V20H20V21C19.2044 21 18.4413 21.3161 17.8787 21.8787C17.3161 22.4413 17 23.2044 17 24C17 24.7956 17.3161 25.5587 17.8787 26.1213C18.4413 26.6839 19.2044 27 20 27V29C19.7348 29 19.4804 28.8946 19.2929 28.7071C19.1054 28.5196 19 28.2652 19 28ZM19 24C19 23.7348 19.1054 23.4804 19.2929 23.2929C19.4804 23.1054 19.7348 23 20 23V25C19.7348 25 19.4804 24.8946 19.2929 24.7071C19.1054 24.5196 19 24.2652 19 24ZM22 27C22.2652 27 22.5196 27.1054 22.7071 27.2929C22.8946 27.4804 23 27.7348 23 28C23 28.2652 22.8946 28.5196 22.7071 28.7071C22.5196 28.8946 22.2652 29 22 29V27Z" fill="white"/>
<path id="Vector_4" d="M44 11C42.22 11 40.4799 11.5278 38.9999 12.5168C37.5198 13.5057 36.3663 14.9113 35.6851 16.5558C35.0039 18.2004 34.8257 20.01 35.1729 21.7558C35.5202 23.5016 36.3774 25.1053 37.636 26.364C38.8947 27.6226 40.4984 28.4798 42.2442 28.8271C43.99 29.1743 45.7996 28.9961 47.4442 28.3149C49.0887 27.6337 50.4943 26.4802 51.4832 25.0001C52.4722 23.5201 53 21.78 53 20C52.9974 17.6139 52.0483 15.3262 50.361 13.639C48.6738 11.9517 46.3861 11.0026 44 11V11ZM44 27C42.6155 27 41.2622 26.5895 40.111 25.8203C38.9599 25.0511 38.0627 23.9579 37.5328 22.6788C37.003 21.3997 36.8644 19.9922 37.1345 18.6344C37.4046 17.2765 38.0713 16.0292 39.0503 15.0503C40.0292 14.0713 41.2765 13.4046 42.6344 13.1345C43.9922 12.8644 45.3997 13.003 46.6788 13.5328C47.9579 14.0627 49.0511 14.9599 49.8203 16.111C50.5895 17.2622 51 18.6155 51 20C50.9979 21.8559 50.2597 23.6351 48.9474 24.9474C47.6351 26.2597 45.8559 26.9979 44 27V27Z" fill="white"/>
</g>
</svg>
