<svg width="56" height="64" viewBox="0 0 56 64" fill="none" xmlns="http://www.w3.org/2000/svg">
<g id="house 1" clip-path="url(#clip0_90_2216)">
<g id="Group">
<g id="Group_2">
<path id="Vector" d="M55.9962 55.5511L55.9586 54.5675C55.9393 54.0649 55.5647 53.676 55.1275 53.6975C54.6879 53.7195 54.347 54.1446 54.3663 54.6473L54.4043 55.6388C54.4046 55.6448 54.4048 55.6508 54.4051 55.6568C54.4154 55.84 54.3605 56.0146 54.2507 56.1484C54.1415 56.2814 53.9937 56.3546 53.8344 56.3546H49.172V39.5422L50.374 40.0277C52.4455 40.8644 53.8749 43.025 54.0176 45.5341L54.1497 48.9885C54.169 49.491 54.5404 49.8815 54.9807 49.8585C55.4205 49.8365 55.7613 49.4114 55.742 48.9089L55.6096 45.4454C55.6092 45.4394 55.609 45.4334 55.6087 45.4274C55.4281 42.1851 53.5819 39.3915 50.905 38.3105L48.6792 37.4115C48.6661 37.4052 48.654 37.3972 48.6405 37.3919L41.9931 34.7068C41.992 34.7063 41.9908 34.7058 41.9897 34.7055C41.965 34.6957 41.9405 34.6875 41.9156 34.6801C41.903 34.6762 41.8903 34.6737 41.8777 34.6706C41.4378 34.5405 40.9612 34.6851 40.637 35.0562L40.4315 35.2915L38.6774 34.2852L38.6772 32.528C39.2072 32.111 39.7064 31.6136 40.1597 31.0586C40.165 31.052 40.1704 31.0455 40.1757 31.0388C41.3203 29.6301 42.1652 27.8566 42.4526 26.0946C42.4603 26.0481 42.4678 26.0015 42.4747 25.955C42.4818 25.9067 42.4885 25.8586 42.4947 25.8105C42.5052 25.73 42.5144 25.6496 42.5225 25.5693C42.5245 25.5501 42.527 25.5307 42.5287 25.5115C42.5368 25.4242 42.5437 25.3371 42.5489 25.2503H42.8796C43.9069 25.2503 44.7426 24.2952 44.7426 23.1212V20.7348C44.7426 20.6219 44.7339 20.5101 44.7185 20.3996C44.836 20.1557 44.9036 19.8754 44.9036 19.5768V18.5593C44.9036 17.7857 44.4537 17.1316 43.841 16.9293V16.7857C43.841 16.6988 43.84 16.6121 43.8382 16.5258C43.7842 14.0972 42.9498 11.7965 41.4889 10.0479C40.1562 8.45279 38.4128 7.44304 36.5353 7.16741C36.5066 7.10866 36.4756 7.05191 36.4433 6.99616C36.435 6.98191 36.4262 6.96816 36.4177 6.95404C36.3851 6.90004 36.3508 6.84766 36.3149 6.79691C36.3086 6.78804 36.3025 6.77891 36.2962 6.77016C36.2518 6.70904 36.2052 6.65029 36.1562 6.59416C36.1546 6.59229 36.1528 6.59054 36.1511 6.58854C36.1034 6.53429 36.0535 6.48279 36.0019 6.43354C35.9961 6.42804 35.9904 6.42241 35.9846 6.41691C35.8783 6.31741 35.7642 6.22929 35.6438 6.15291C35.6329 6.14604 35.6222 6.13916 35.6113 6.13241C35.5515 6.09591 35.4905 6.06166 35.4279 6.03129C35.4247 6.02979 35.4213 6.02854 35.418 6.02691C35.3602 5.99916 35.3009 5.97491 35.2408 5.95266C35.2245 5.94654 35.2081 5.94066 35.1917 5.93504C35.128 5.91329 35.0636 5.89341 34.9979 5.87791C34.9942 5.87704 34.9905 5.87654 34.9868 5.87579C34.9239 5.86129 34.86 5.85079 34.7955 5.84229C34.7777 5.83991 34.76 5.83791 34.7422 5.83604C34.6735 5.82891 34.6044 5.82404 34.5344 5.82404H33.7822C33.7122 5.82404 33.6431 5.82891 33.5744 5.83604C33.5565 5.83791 33.5387 5.84004 33.521 5.84229C33.4567 5.85066 33.3929 5.86129 33.3302 5.87566C33.3263 5.87654 33.3225 5.87704 33.3187 5.87791C33.2531 5.89341 33.1886 5.91316 33.125 5.93491C33.1085 5.94054 33.092 5.94654 33.0756 5.95266C33.0157 5.97491 32.9565 5.99916 32.8987 6.02679C32.8954 6.02841 32.8919 6.02966 32.8886 6.03129C32.8259 6.06166 32.7651 6.09591 32.7053 6.13229C32.6943 6.13904 32.6833 6.14604 32.6724 6.15291C32.614 6.18991 32.5567 6.22916 32.5013 6.27179C32.5012 6.27191 32.501 6.27204 32.5009 6.27216C32.4425 6.31716 32.3864 6.36579 32.3318 6.41679C32.3259 6.42229 32.3201 6.42804 32.3143 6.43366C32.2628 6.48279 32.213 6.53416 32.1654 6.58829C32.1637 6.59029 32.1618 6.59216 32.1601 6.59416C32.1112 6.65016 32.0646 6.70891 32.0203 6.76991C32.0138 6.77879 32.0077 6.78791 32.0014 6.79691C31.9655 6.84754 31.9313 6.89991 31.8987 6.95379C31.8901 6.96791 31.8813 6.98166 31.873 6.99604C31.8407 7.05166 31.8096 7.10854 31.781 7.16729C29.9035 7.44291 28.1601 8.45279 26.8275 10.0477C26.1155 10.8998 25.5538 11.8835 25.1572 12.9487L20.5412 8.00679C19.5938 6.99254 18.1115 6.99479 17.1667 8.01217L12.1595 13.4029L12.1586 12.7727C12.1582 12.4114 12.0347 12.072 11.8108 11.817C11.5873 11.5624 11.2908 11.4223 10.9754 11.4223C10.9748 11.4223 10.9742 11.4223 10.9736 11.4223L7.21989 11.4283C6.56757 11.4294 6.03743 12.0368 6.0382 12.7827L6.04848 19.9821L0.774512 25.6601C0.295339 26.176 0.0206976 26.8741 0.00111945 27.6261C-0.0184587 28.3781 0.219323 29.0937 0.670605 29.6411C1.12189 30.1887 1.73275 30.5026 2.39075 30.5251C2.41602 30.526 2.44106 30.5263 2.46611 30.5263C3.09644 30.5263 3.6933 30.256 4.15399 29.7598L5.93998 27.837L5.94774 34.2221C5.9484 34.7246 6.30496 35.1315 6.74465 35.1315C6.74498 35.1315 6.74542 35.1315 6.74574 35.1315C7.18587 35.1307 7.54221 34.7225 7.54156 34.2195L7.5316 26.1235L18.8609 13.9261L23.4124 18.7991V19.5767C23.4124 19.6294 23.4152 19.6817 23.4193 19.7336C23.4201 19.7432 23.4208 19.7528 23.4217 19.7624C23.443 19.9901 23.5025 20.2071 23.5971 20.4026C23.582 20.5119 23.5736 20.6228 23.5736 20.7347V23.1211C23.5736 24.2951 24.4093 25.2502 25.4367 25.2502H25.7663C25.7715 25.3402 25.7785 25.4305 25.7868 25.5211C25.7891 25.5466 25.7922 25.5722 25.7949 25.5977C25.8025 25.6728 25.811 25.7481 25.8208 25.8236C25.8266 25.8688 25.8327 25.9142 25.8393 25.9595C25.8471 26.0133 25.856 26.0675 25.8649 26.1215C25.8832 26.2333 25.9039 26.3453 25.9268 26.4572C25.9309 26.4777 25.9348 26.4982 25.9391 26.5187C25.955 26.5938 25.9722 26.6688 25.99 26.7438C25.9936 26.7588 25.9972 26.774 26.0009 26.789C26.1428 27.374 26.3425 27.9548 26.591 28.5182C26.5936 28.5242 26.5963 28.5302 26.599 28.5362C26.6983 28.7605 26.8053 28.9816 26.9195 29.1992C26.9346 29.228 26.9494 29.2567 26.9647 29.2853C26.9956 29.343 27.0269 29.4003 27.0587 29.4573C27.0828 29.5005 27.1073 29.5433 27.1319 29.5861C27.1595 29.6342 27.1869 29.6826 27.2152 29.7303C27.2657 29.8155 27.3176 29.8997 27.3703 29.9835C27.3928 30.0192 27.4159 30.0543 27.4388 30.0898C27.478 30.1507 27.5178 30.2112 27.5583 30.2712C27.5804 30.304 27.6024 30.3367 27.6247 30.3691C27.6797 30.449 27.7357 30.5282 27.7927 30.6065C27.8009 30.6177 27.8088 30.6291 27.817 30.6402C27.8797 30.7256 27.9438 30.8095 28.0087 30.8927C28.0316 30.9221 28.0548 30.951 28.0779 30.98C28.1236 31.0373 28.1698 31.0942 28.2166 31.1505C28.2426 31.1816 28.2683 31.2128 28.2944 31.2436C28.3506 31.3096 28.4076 31.3747 28.4652 31.4391C28.5066 31.4855 28.5487 31.5308 28.5909 31.5762C28.6263 31.6142 28.6616 31.6523 28.6975 31.6897C28.7409 31.7351 28.7847 31.7796 28.8288 31.8238C28.8522 31.8473 28.8759 31.8706 28.8995 31.8937C29.1378 32.1283 29.3847 32.3467 29.6387 32.5467L29.6385 34.2848L27.885 35.2913L27.6792 35.0557C27.4821 34.8301 27.2287 34.6881 26.9615 34.6405C26.9318 34.6352 26.902 34.6311 26.872 34.6281C26.842 34.6252 26.8119 34.6233 26.7818 34.6228C26.7517 34.6223 26.7214 34.623 26.6913 34.6248C26.6086 34.63 26.526 34.6448 26.4445 34.6685C26.429 34.6722 26.4134 34.6757 26.3978 34.6805C26.3736 34.6877 26.3445 34.6976 26.323 34.7063L23.3309 35.915L23.323 29.437C23.322 28.6017 22.7271 27.9232 21.9966 27.9232C21.9959 27.9232 21.9954 27.9232 21.9947 27.9232L15.7614 27.9332C15.4072 27.9338 15.0742 28.092 14.8241 28.3787C14.5739 28.6653 14.4364 29.0463 14.4369 29.4512L14.4506 40.5989C14.4495 40.6004 14.4484 40.6019 14.4472 40.6034C14.4256 40.6314 14.4052 40.6604 14.384 40.6887C14.3501 40.7341 14.3159 40.7792 14.2829 40.8256C14.2621 40.8547 14.2423 40.8847 14.222 40.9142C14.1897 40.9607 14.1572 41.007 14.1259 41.0544C14.1059 41.0846 14.0869 41.1157 14.0672 41.1464C14.0367 41.1939 14.0057 41.2411 13.9761 41.2895C13.957 41.3206 13.9389 41.3526 13.9202 41.384C13.8912 41.4326 13.8619 41.4811 13.8338 41.5305C13.8155 41.5626 13.7983 41.5956 13.7804 41.6281C13.7531 41.6777 13.7254 41.7272 13.6991 41.7776C13.6819 41.8104 13.6658 41.8439 13.649 41.8769C13.6231 41.9279 13.5969 41.9786 13.572 42.0302C13.5556 42.0644 13.5401 42.0991 13.5242 42.1336C13.5003 42.185 13.476 42.236 13.4531 42.288C13.437 42.3244 13.4221 42.3614 13.4065 42.398C13.3848 42.4489 13.3628 42.4995 13.3421 42.551C13.3269 42.5886 13.3129 42.6269 13.2982 42.6649C13.2784 42.7162 13.2582 42.7672 13.2392 42.8191C13.225 42.8581 13.2119 42.8979 13.1982 42.9372C13.1803 42.9886 13.1619 43.0397 13.145 43.0916C13.1316 43.1324 13.1195 43.1736 13.1067 43.2146C13.0907 43.266 13.0742 43.3171 13.059 43.3689C13.0467 43.4107 13.0357 43.4532 13.0241 43.4954C13.0099 43.5469 12.9951 43.5981 12.9818 43.6501C12.9707 43.6932 12.9609 43.7369 12.9504 43.7802C12.9379 43.832 12.9249 43.8835 12.9133 43.9356C12.9036 43.9794 12.895 44.0237 12.886 44.0679C12.8751 44.1201 12.8638 44.1722 12.8538 44.2249C12.8453 44.2701 12.8381 44.3159 12.8302 44.3614C12.8212 44.4134 12.8117 44.4651 12.8035 44.5174C12.7962 44.5646 12.7901 44.6122 12.7836 44.6596C12.7765 44.7107 12.7687 44.7617 12.7625 44.8131C12.7565 44.8619 12.7519 44.911 12.7467 44.9599C12.7414 45.0106 12.7353 45.0611 12.7308 45.1121C12.7263 45.1617 12.7232 45.2117 12.7196 45.2616C12.7162 45.3081 12.7119 45.3545 12.7092 45.4011L7.58782 45.4092C7.56989 45.4092 7.55534 45.3926 7.55534 45.3721L7.54867 39.8784C7.54801 39.3757 7.19145 38.9689 6.75176 38.9689C6.75143 38.9689 6.75099 38.9689 6.75067 38.9689C6.31054 38.9696 5.95419 39.3779 5.95485 39.8809L5.96152 45.3747C5.96284 46.3987 6.69215 47.2307 7.58782 47.2307C7.58859 47.2307 7.58935 47.2307 7.59001 47.2307L12.6389 47.2227L12.3202 55.5511C12.2848 56.2285 12.4972 56.9 12.9035 57.3948C13.3111 57.8913 13.8865 58.176 14.482 58.176H53.8344C54.4298 58.176 55.0052 57.8913 55.4128 57.3948C55.8191 56.9 56.0315 56.2285 55.9962 55.5511ZM43.1488 23.1211C43.1488 23.2907 43.028 23.4287 42.8796 23.4287H42.5613V21.2712H43.1488V23.1211V23.1211ZM33.1034 8.25579C33.1042 8.25254 33.1055 8.24954 33.1063 8.24629C33.1356 8.11554 33.1923 7.99954 33.268 7.90504C33.2699 7.90267 33.2718 7.90029 33.2736 7.89804C33.2976 7.86879 33.3235 7.84179 33.3509 7.81704C33.3541 7.81416 33.3575 7.81142 33.3608 7.80867C33.4163 7.76041 33.4781 7.72191 33.5444 7.69429C33.5495 7.69216 33.5544 7.68991 33.5594 7.68804C33.5912 7.67579 33.6241 7.66616 33.6576 7.65916C33.6636 7.65791 33.6698 7.65704 33.6758 7.65604C33.7107 7.64991 33.746 7.64579 33.7821 7.64579H34.5343C34.5704 7.64579 34.6058 7.64991 34.6406 7.65604C34.6466 7.65704 34.6527 7.65791 34.6587 7.65916C34.6922 7.66616 34.725 7.67566 34.7569 7.68804C34.762 7.69004 34.767 7.69229 34.7722 7.69441C34.8382 7.72191 34.8999 7.76041 34.9554 7.80854C34.9588 7.81141 34.9623 7.81429 34.9655 7.81716C34.9929 7.84179 35.0186 7.86866 35.0425 7.89779C35.0446 7.90029 35.0465 7.90279 35.0484 7.90529C35.124 7.99979 35.1807 8.11554 35.21 8.24617C35.2108 8.24942 35.2121 8.25229 35.2128 8.25554C35.2259 8.31629 35.2335 8.37954 35.2335 8.44479V11.5179C35.2335 11.9585 34.9198 12.317 34.5344 12.317H33.7822C33.3967 12.317 33.083 11.9585 33.083 11.5179V8.44479H33.0829C33.0829 8.37954 33.0905 8.31654 33.1034 8.25579ZM10.5655 13.2443L10.5681 15.1161L7.63978 18.2688L7.63267 13.2491L10.5655 13.2443ZM24.6225 14.9774C24.6073 15.0709 24.5924 15.1644 24.5795 15.2587C24.5723 15.3114 24.5664 15.3642 24.5599 15.4171C24.5494 15.5029 24.5387 15.5887 24.5302 15.6751C24.5229 15.7474 24.5179 15.8199 24.5121 15.8924C24.5067 15.9606 24.5003 16.0283 24.4961 16.0967C24.4874 16.2397 24.4812 16.3827 24.478 16.5258C24.476 16.6122 24.475 16.6989 24.475 16.7858V16.9293C24.4734 16.9298 24.472 16.9307 24.4703 16.9312C24.4219 16.9474 24.3748 16.9673 24.3286 16.9889C24.3136 16.9959 24.2988 17.0032 24.2841 17.0107C24.2433 17.0317 24.2032 17.0543 24.1645 17.0794C24.1588 17.0832 24.1526 17.0858 24.1469 17.0896L19.4042 12.0119C19.097 11.6833 18.6192 11.6838 18.3129 12.0137L3.06111 28.4342C2.89191 28.6165 2.67195 28.7135 2.43822 28.7046C2.2058 28.6966 1.99011 28.5857 1.83064 28.3923C1.67117 28.199 1.58717 27.9462 1.59406 27.6806C1.60106 27.415 1.69808 27.1683 1.86728 26.9862L18.2595 9.33792C18.4267 9.15792 18.6415 9.06779 18.8563 9.06779C19.0704 9.06779 19.2845 9.15717 19.4515 9.33604L24.6364 14.8868C24.6311 14.9171 24.6274 14.9473 24.6225 14.9774ZM25.4367 23.4288C25.2881 23.4288 25.1674 23.2908 25.1674 23.1212V21.2713H25.7547V23.4288H25.4367V23.4288ZM25.0064 19.1664V18.6862H25.272C25.7122 18.6862 26.069 18.2784 26.069 17.7754V16.7856C26.069 16.7142 26.0697 16.6431 26.0714 16.5719C26.0744 16.4332 26.0814 16.2943 26.0909 16.1556C26.0933 16.1202 26.0968 16.0851 26.0997 16.0497C26.1082 15.9428 26.1182 15.8361 26.1305 15.7294C26.1346 15.6947 26.139 15.6601 26.1434 15.6253C26.1579 15.5126 26.1742 15.4002 26.1928 15.2882C26.1969 15.2631 26.2009 15.2379 26.2051 15.2128C26.2291 15.0756 26.2557 14.9388 26.2858 14.8029C26.286 14.8022 26.2861 14.8014 26.2862 14.8007C26.5776 13.4958 27.1557 12.292 27.98 11.3054C28.9406 10.1557 30.1629 9.38229 31.4889 9.06904V11.5174C31.4889 12.9624 32.5176 14.1379 33.782 14.1379H34.5342C35.7985 14.1379 36.8271 12.9623 36.8271 11.5174V9.06929C38.1531 9.38254 39.3755 10.1559 40.3362 11.3057C41.5231 12.7263 42.201 14.5966 42.2449 16.5721C42.2464 16.6431 42.2472 16.7142 42.2472 16.7856V17.7754C42.2472 18.2784 42.604 18.6862 43.0441 18.6862H43.3099V19.1664H25.0064V19.1664ZM27.3787 25.4008C27.3773 25.3868 27.376 25.3728 27.3746 25.3587C27.3673 25.2823 27.3617 25.2063 27.3574 25.1306C27.3567 25.1185 27.3559 25.1063 27.3552 25.0942C27.3509 25.0068 27.3485 24.9198 27.3485 24.8335V21.2713H40.9675V24.8144C40.9675 24.9017 40.9651 24.9897 40.9607 25.078C40.9602 25.0881 40.9594 25.0982 40.9589 25.1083C40.9546 25.1858 40.9488 25.2637 40.9414 25.3418C40.9401 25.3556 40.9387 25.3693 40.9373 25.3831C40.9286 25.4687 40.9183 25.5546 40.9058 25.6408C40.9057 25.6413 40.9057 25.6417 40.9056 25.6422C40.6231 27.5903 39.4033 29.6698 37.9084 30.9162C37.8977 30.9251 37.8869 30.9342 37.8762 30.943C37.8289 30.982 37.781 31.0193 37.7331 31.0566C37.7067 31.077 37.6807 31.0981 37.6542 31.118C37.6402 31.1285 37.6261 31.1382 37.612 31.1486C37.5634 31.1845 37.5147 31.2202 37.4655 31.2545C37.463 31.2562 37.4608 31.2585 37.4583 31.2602C37.014 31.569 36.5524 31.8008 36.089 31.9326L36.0057 31.9563C34.3058 32.4395 33.9155 32.4383 32.2094 31.9467C31.7505 31.8145 31.2932 31.5836 30.8529 31.2768C30.8519 31.2761 30.8511 31.2752 30.8501 31.2746C30.8325 31.2623 30.8153 31.2492 30.7977 31.2367C30.7456 31.1996 30.6937 31.1622 30.6422 31.1231C30.6294 31.1135 30.6168 31.1032 30.6041 31.0935C28.9539 29.8182 27.5939 27.5041 27.3787 25.4008ZM30.4208 35.8745C30.9095 35.6625 31.2325 35.1327 31.2325 34.5283L31.2326 33.505C31.4268 33.5865 31.6228 33.6561 31.8199 33.713C32.7988 33.995 33.4583 34.1357 34.1189 34.1357C34.7718 34.1357 35.4259 33.9982 36.3906 33.7241L36.4739 33.7003C36.6786 33.6422 36.8819 33.5698 37.0836 33.4852L37.0837 34.5283C37.0837 35.1328 37.4066 35.6627 37.8954 35.8746L39.1723 36.6072C39.157 36.6206 39.142 36.6347 39.1267 36.648C39.0916 36.6781 39.056 36.7072 39.0204 36.7367C38.9534 36.7923 38.8859 36.847 38.8175 36.9001C38.7793 36.9299 38.7411 36.9591 38.7025 36.9881C38.6328 37.0403 38.5623 37.0911 38.4914 37.1409C38.4552 37.1662 38.4192 37.1921 38.3827 37.2169C38.296 37.2756 38.2081 37.3321 38.1196 37.3871C38.0987 37.4001 38.0782 37.414 38.0572 37.4267C37.9475 37.4935 37.8364 37.5571 37.7241 37.6181C37.694 37.6345 37.6634 37.6493 37.6331 37.6653C37.5502 37.709 37.4667 37.7516 37.3826 37.792C37.3422 37.8115 37.3012 37.8298 37.2604 37.8486C37.1842 37.8835 37.1077 37.9172 37.0305 37.9496C36.988 37.9675 36.9453 37.9851 36.9025 38.0021C36.8224 38.0338 36.7418 38.0639 36.6609 38.0929C36.6221 38.1067 36.5835 38.1212 36.5446 38.1345C36.4379 38.1707 36.3305 38.2045 36.2225 38.2357C36.2095 38.2395 36.1967 38.244 36.1837 38.2476C36.062 38.2821 35.9394 38.313 35.8161 38.3412C35.7808 38.3494 35.7452 38.356 35.7096 38.3636C35.6211 38.3825 35.5324 38.4003 35.4431 38.416C35.399 38.4237 35.3548 38.4306 35.3106 38.4375C35.2276 38.4505 35.1444 38.4621 35.0608 38.4724C35.0158 38.4779 34.9708 38.4832 34.9256 38.488C34.8371 38.4971 34.7482 38.5042 34.6591 38.5102C34.6203 38.5128 34.5817 38.5162 34.5428 38.5182C34.4149 38.5248 34.2868 38.5289 34.1579 38.5289C34.0291 38.5289 33.9009 38.5247 33.773 38.5182C33.7342 38.5162 33.6957 38.5128 33.6571 38.5102C33.5678 38.5042 33.4788 38.4971 33.3901 38.488C33.345 38.4834 33.3001 38.4778 33.2552 38.4725C33.1716 38.4622 33.0882 38.4506 33.0051 38.4376C32.961 38.4307 32.9168 38.4239 32.8729 38.4161C32.7835 38.4005 32.6946 38.3826 32.606 38.3636C32.5705 38.356 32.5349 38.3494 32.4997 38.3414C32.3763 38.3131 32.2537 38.2822 32.1321 38.2476C32.1194 38.244 32.1069 38.2396 32.0942 38.236C31.9858 38.2046 31.8781 38.1707 31.7711 38.1344C31.7324 38.1212 31.6941 38.1067 31.6556 38.093C31.5744 38.0639 31.4934 38.0337 31.413 38.0019C31.3706 37.985 31.3283 37.9675 31.286 37.9498C31.2085 37.9173 31.1314 37.8833 31.0547 37.8482C31.0144 37.8297 30.974 37.8115 30.934 37.7922C30.8488 37.7514 30.7645 37.7083 30.6807 37.6642C30.6513 37.6488 30.6217 37.6343 30.5926 37.6185C30.48 37.5573 30.3685 37.4935 30.2582 37.4265C30.2386 37.4145 30.2194 37.4015 30.1998 37.3894C30.1099 37.3336 30.0208 37.2762 29.9327 37.2166C29.897 37.1923 29.8618 37.1671 29.8263 37.1422C29.7545 37.0918 29.683 37.0405 29.6125 36.9875C29.5748 36.9592 29.5374 36.9305 29.5001 36.9015C29.4307 36.8476 29.3621 36.7921 29.2941 36.7356C29.2594 36.7068 29.2247 36.6785 29.1904 36.6491C29.1748 36.6357 29.1596 36.6212 29.144 36.6077L30.4208 35.8745ZM14.482 56.3545C14.3227 56.3545 14.1748 56.2813 14.0656 56.1483C13.9558 56.0145 13.9009 55.8399 13.9111 55.6566C13.9115 55.6506 13.9118 55.6446 13.912 55.6386L14.2986 45.5344C14.384 44.0342 14.9296 42.6587 15.7971 41.6161C15.8054 41.6071 15.8142 41.5987 15.8221 41.5892C16.3324 40.9832 16.9514 40.4974 17.6274 40.1685C17.6415 40.1616 17.6557 40.1549 17.6699 40.1482C17.7598 40.1055 17.8505 40.0649 17.9422 40.0277L19.1443 39.5422V56.3545H14.482V56.3545ZM19.6371 37.4114L17.4112 38.3105C17.3277 38.3442 17.245 38.3796 17.1632 38.4166C17.1372 38.4284 17.1118 38.4414 17.086 38.4534C17.0657 38.4629 17.0456 38.4725 17.0255 38.4822C16.9904 38.4991 16.9548 38.5151 16.92 38.5326C16.8817 38.5519 16.8441 38.5727 16.8061 38.5927C16.7647 38.6145 16.723 38.6355 16.6822 38.6581C16.6437 38.6795 16.6059 38.7022 16.5679 38.7242C16.5284 38.7471 16.4883 38.7692 16.4493 38.793C16.4134 38.8147 16.3783 38.838 16.3428 38.8603C16.3025 38.8858 16.2618 38.9106 16.222 38.9368C16.187 38.96 16.1529 38.9846 16.1182 39.0084C16.0929 39.0257 16.0676 39.0429 16.0425 39.0605L16.0312 29.7546L21.7297 29.7455L21.738 36.5588L19.6758 37.3917C19.6623 37.3971 19.6502 37.4051 19.6371 37.4114ZM20.7381 56.3545V38.8985L26.01 36.7691L26.62 40.1906C26.8481 41.4704 27.5338 42.6032 28.501 43.2987L33.3611 46.7937V56.3545H20.7381ZM29.3499 41.7571C28.7492 41.3252 28.3235 40.6216 28.1818 39.827L27.8052 37.7143C27.8349 37.743 27.8636 37.7735 27.8936 37.8016C29.651 39.4524 31.8413 40.3501 34.1582 40.3501C34.8002 40.3501 35.432 40.2797 36.048 40.145C37.6932 39.7851 39.2218 38.9549 40.5112 37.7143L40.1345 39.827C39.993 40.6216 39.5673 41.3251 38.9666 41.757L34.1582 45.2147L29.3499 41.7571ZM47.5781 56.3545H34.955V46.7939L39.8152 43.2989C40.7827 42.6032 41.4682 41.4704 41.6962 40.1907L42.3063 36.7691L47.5781 38.8985V56.3545V56.3545Z" fill="white"/>
</g>
</g>
</g>
<defs>
<clipPath id="clip0_90_2216">
<rect width="56" height="64" fill="white"/>
</clipPath>
</defs>
</svg>
