<svg width="64" height="64" viewBox="0 0 64 64" fill="none" xmlns="http://www.w3.org/2000/svg">
<g id="light-bulb 1" opacity="0.5">
<g id="Group">
<path id="Vector" d="M32 31.8499C30.1281 28.2301 26.3484 25.75 22 25.75H19.5C18.8096 25.75 18.25 26.3096 18.25 27V29.5C18.25 35.7032 23.2968 40.75 29.5 40.75H30.75V47C30.75 47.6904 31.3096 48.25 32 48.25C32.6904 48.25 33.25 47.6904 33.25 47V40.75H34.5C40.7032 40.75 45.75 35.7032 45.75 29.5V27C45.75 26.3096 45.1904 25.75 44.5 25.75H42C37.6516 25.75 33.8719 28.2301 32 31.8499ZM20.75 29.5V28.25H22C26.6448 28.25 30.454 31.8881 30.732 36.4642L27.8839 33.6161C27.3957 33.128 26.6042 33.128 26.116 33.6161C25.6277 34.1042 25.6279 34.8957 26.116 35.384L28.9641 38.2321C24.3881 37.954 20.75 34.1448 20.75 29.5V29.5ZM43.25 29.5C43.25 34.1448 39.6119 37.954 35.0358 38.232L37.8839 35.3839C38.372 34.8958 38.372 34.1043 37.8839 33.616C37.3958 33.1278 36.6043 33.1279 36.116 33.616L33.2679 36.4641C33.546 31.8881 37.3552 28.25 42 28.25H43.25V29.5Z" fill="white"/>
<path id="Vector_2" d="M4.5 28.25C3.80963 28.25 3.25 28.8096 3.25 29.5C3.25 30.1904 3.80963 30.75 4.5 30.75H9.5C10.1904 30.75 10.75 30.1904 10.75 29.5C10.75 28.8096 10.1904 28.25 9.5 28.25H4.5Z" fill="white"/>
<path id="Vector_3" d="M60.75 29.5C60.75 28.8096 60.1904 28.25 59.5 28.25H54.5C53.8096 28.25 53.25 28.8096 53.25 29.5C53.25 30.1904 53.8096 30.75 54.5 30.75H59.5C60.1904 30.75 60.75 30.1904 60.75 29.5Z" fill="white"/>
<path id="Vector_4" d="M30.75 7C30.75 7.69037 31.3096 8.25 32 8.25C32.6904 8.25 33.25 7.69037 33.25 7V1.25C33.25 0.559625 32.6904 0 32 0C31.3096 0 30.75 0.559625 30.75 1.25V7Z" fill="white"/>
<path id="Vector_5" d="M50.5613 49.8289C51.0494 50.317 51.8409 50.317 52.3291 49.8289C52.8173 49.3408 52.8173 48.5493 52.3291 48.061L48.7941 44.526C48.306 44.0379 47.5145 44.0379 47.0263 44.526C46.5381 45.0141 46.5381 45.8056 47.0263 46.2939L50.5613 49.8289Z" fill="white"/>
<path id="Vector_6" d="M11.6713 9.17112C11.1831 9.65924 11.1831 10.4507 11.6713 10.939L15.2063 14.474C15.6944 14.9621 16.4859 14.9621 16.9741 14.474C17.4623 13.9859 17.4623 13.1944 16.9741 12.7061L13.4391 9.17112C12.9509 8.68287 12.1594 8.68287 11.6713 9.17112Z" fill="white"/>
<path id="Vector_7" d="M52.3286 9.17115C51.8405 8.68302 51.049 8.68302 50.5608 9.17115L47.0258 12.7061C46.5376 13.1943 46.5376 13.9858 47.0258 14.474C47.5139 14.9621 48.3054 14.9621 48.7936 14.474L52.3286 10.939C52.8168 10.4508 52.8168 9.65927 52.3286 9.17115Z" fill="white"/>
<path id="Vector_8" d="M11.6713 49.8289C12.1594 50.317 12.9509 50.317 13.4391 49.8289L16.9741 46.2939C17.4623 45.8058 17.4623 45.0143 16.9741 44.526C16.486 44.0379 15.6945 44.0379 15.2063 44.526L11.6713 48.061C11.1831 48.5493 11.1831 49.3408 11.6713 49.8289Z" fill="white"/>
<path id="Vector_9" d="M44.375 18.375C45.0654 18.375 45.625 17.8154 45.625 17.125C45.625 16.4346 45.0654 15.875 44.375 15.875C43.6846 15.875 43.125 16.4346 43.125 17.125C43.125 17.8154 43.6846 18.375 44.375 18.375Z" fill="white"/>
<path id="Vector_10" d="M32 64C36.8247 64 40.75 60.0747 40.75 55.25V46.0646C46.8445 42.8421 50.75 36.5194 50.75 29.5C50.75 26.5582 50.0876 23.7415 48.7812 21.1276C48.4726 20.51 47.7215 20.2597 47.1042 20.5684C46.4867 20.877 46.2364 21.6279 46.545 22.2454C47.6764 24.509 48.25 26.9497 48.25 29.5C48.25 35.7239 44.6045 41.4803 38.9629 44.165C38.5274 44.3723 38.25 44.8115 38.25 45.2938V54H25.75V45.2938C25.75 44.8115 25.4726 44.3723 25.0371 44.165C19.1694 41.3726 15.528 35.3806 15.7605 28.8999C16.0661 20.4125 23.2275 13.3929 31.7245 13.2522C34.3711 13.2089 36.9065 13.7811 39.2547 14.9549C39.8724 15.2638 40.6231 15.0133 40.9317 14.3956C41.2404 13.7781 40.99 13.0274 40.3725 12.7186C37.6992 11.3825 34.694 10.7032 31.6831 10.7525C21.8785 10.9147 13.6149 19.0154 13.2621 28.81C13.0035 36.0219 16.9009 42.7085 23.2501 46.0645V55.25C23.25 60.0747 27.1752 64 32 64ZM32 61.5C28.9817 61.5 26.4565 59.3494 25.8757 56.4987H38.1242C37.5435 59.3494 35.0182 61.5 32 61.5Z" fill="white"/>
</g>
</g>
</svg>
