<svg width="64" height="64" viewBox="0 0 64 64" fill="none" xmlns="http://www.w3.org/2000/svg">
<g id="return-on-investment 1">
<g id="Outline">
<path id="Vector" d="M14.5611 13.3508L14.5161 23.3508C14.5152 23.5365 14.4627 23.7184 14.3643 23.8759C14.2659 24.0335 14.1256 24.1605 13.959 24.2428C13.7925 24.3251 13.6063 24.3594 13.4214 24.3418C13.2365 24.3242 13.0601 24.2555 12.9121 24.1433L11.9681 23.4279C10.5187 26.8237 9.95488 30.5318 10.3295 34.2049C10.704 37.878 12.0047 41.3959 14.1097 44.4293L12.4676 45.5708C10.0406 42.0743 8.59508 37.9913 8.28159 33.7467C7.96809 29.502 8.79805 25.2509 10.6851 21.4359C10.7504 21.304 10.8441 21.1882 10.9594 21.0967C11.0747 21.0052 11.2088 20.9403 11.3521 20.9065C11.4953 20.8728 11.6443 20.8712 11.7883 20.9017C11.9323 20.9322 12.0678 20.9941 12.1851 21.083L12.5252 21.3406L12.5552 14.6751L6.14845 16.5126L7.15845 17.2769C7.34973 17.4216 7.4826 17.6303 7.53283 17.8649C7.58306 18.0994 7.5473 18.3442 7.43207 18.5546C6.76526 19.7732 6.19041 21.0398 5.71232 22.344L3.83445 21.6565C4.24749 20.5298 4.72798 19.4289 5.27332 18.3599L3.34632 16.9013C3.19823 16.7892 3.08428 16.6381 3.01723 16.4649C2.95018 16.2917 2.93269 16.1032 2.96672 15.9207C3.00075 15.7381 3.08494 15.5686 3.20988 15.4312C3.33482 15.2938 3.49555 15.1938 3.67407 15.1426L13.2853 12.385C13.4346 12.3422 13.5917 12.3347 13.7443 12.3632C13.897 12.3916 14.0409 12.4552 14.1647 12.5489C14.2884 12.6426 14.3887 12.7639 14.4575 12.903C14.5263 13.0422 14.5618 13.1955 14.5611 13.3508V13.3508ZM5.18307 45.4491L6.97057 44.5509C4.40903 39.4658 3.46884 33.7173 4.27682 28.0811C4.43796 26.9418 4.66817 25.8134 4.9662 24.702L3.03457 24.1833C2.71562 25.3732 2.46934 26.5815 2.29707 27.8014C1.43107 33.8407 2.43837 40.0003 5.18307 45.4491V45.4491ZM27.2056 23.1006C26.5692 23.4102 25.9641 23.7803 25.3986 24.2058L26.6011 25.8039C27.0639 25.4556 27.5591 25.1528 28.08 24.8994L27.2056 23.1006ZM20.9998 34H22.9998V33C22.9991 30.7702 23.8284 28.6199 25.3263 26.9681L23.8434 25.6264C22.0125 27.6457 20.9988 30.2742 20.9998 33V34ZM58.9998 61V52H56.9998V60H46.9998V48H47.9998V46H46.2563C43.9874 44.7549 41.4416 44.1007 38.8535 44.0975C36.2653 44.0944 33.718 44.7424 31.446 45.9819L31.4123 46H23.9998C23.3854 46.0007 22.7794 46.1428 22.2286 46.4152C21.6779 46.6876 21.1972 47.0831 20.8238 47.571C20.4504 48.059 20.1942 48.6263 20.0752 49.2291C19.9562 49.8319 19.9774 50.454 20.1373 51.0473L16.2427 49.2625C16.3229 49.1219 16.4214 48.9926 16.5357 48.8779L18.7069 46.7066C18.8944 46.5192 18.9997 46.2651 18.9998 46V33C19.005 30.1595 19.9378 27.3984 21.6564 25.1368C23.375 22.8752 25.7854 21.2369 28.5207 20.4711C28.6686 20.4301 28.8052 20.3556 28.9197 20.2534C29.0342 20.1511 29.1236 20.0239 29.181 19.8815C29.2385 19.7391 29.2623 19.5855 29.2508 19.4324C29.2393 19.2793 29.1927 19.1309 29.1146 18.9988L26.7522 15H37.2475L34.885 18.9988C34.8069 19.1309 34.7602 19.2793 34.7487 19.4324C34.7372 19.5855 34.7611 19.7391 34.8185 19.8815C34.8759 20.0239 34.9654 20.1511 35.0799 20.2534C35.1944 20.3556 35.3309 20.4301 35.4788 20.4711C38.2142 21.2369 40.6245 22.8752 42.3432 25.1368C44.0618 27.3984 44.9947 30.1595 44.9998 33V44H46.9998V33C46.9937 29.943 46.0566 26.9603 44.3134 24.449C42.5701 21.9377 40.1034 20.0169 37.2415 18.9423L39.8608 14.5086C39.9505 14.3568 39.9985 14.1839 39.9998 14.0075C40.0011 13.8311 39.9558 13.6575 39.8683 13.5043C39.7809 13.3511 39.6545 13.2238 39.502 13.1352C39.3495 13.0467 39.1762 13 38.9998 13H24.9998C24.8234 13 24.6502 13.0467 24.4977 13.1352C24.3451 13.2238 24.2187 13.3511 24.1313 13.5043C24.0439 13.6575 23.9985 13.8311 23.9998 14.0075C24.0012 14.1839 24.0491 14.3568 24.1388 14.5086L26.7582 18.9423C23.8963 20.0169 21.4295 21.9377 19.6863 24.449C17.943 26.9603 17.006 29.943 16.9998 33V45.5859L15.1215 47.4641C14.8386 47.7467 14.6019 48.072 14.42 48.428L11.0449 46.8823C10.058 46.4428 8.94218 46.3894 7.91783 46.7327C6.89347 47.076 6.03511 47.7909 5.51232 48.7364C4.36232 50.8768 5.17945 53.7071 7.35882 54.7989L19.0191 60.6289C20.8251 61.5284 22.8147 61.9977 24.8323 62H38.9998V60H24.8323C23.1251 59.9979 21.4415 59.6007 19.9135 58.8394L8.2537 53.0096C7.10295 52.4346 6.6697 50.803 7.2732 49.6846C7.55076 49.1821 8.00692 48.8021 8.55135 48.6198C9.09579 48.4376 9.6888 48.4665 10.2129 48.7008L21.5833 53.9091C21.714 53.969 21.8561 54 21.9998 54H32.9998V52H23.9998C23.4694 52 22.9607 51.7893 22.5856 51.4142C22.2105 51.0391 21.9998 50.5304 21.9998 50C21.9998 49.4696 22.2105 48.9609 22.5856 48.5858C22.9607 48.2107 23.4694 48 23.9998 48H31.6661C31.8324 48 31.9962 47.9585 32.1425 47.8793L32.4012 47.7391C34.3294 46.687 36.4861 46.1236 38.6825 46.0984C40.8789 46.0732 43.048 46.5869 44.9998 47.5945V60H40.9998V62H57.9998C58.265 62 58.5194 61.8947 58.7069 61.7071C58.8945 61.5196 58.9998 61.2652 58.9998 61ZM52.9998 56C52.9998 55.6044 52.8825 55.2178 52.6628 54.8889C52.443 54.56 52.1306 54.3036 51.7652 54.1522C51.3997 54.0009 50.9976 53.9613 50.6096 54.0384C50.2217 54.1156 49.8653 54.3061 49.5856 54.5858C49.3059 54.8655 49.1154 55.2219 49.0383 55.6098C48.9611 55.9978 49.0007 56.3999 49.1521 56.7654C49.3034 57.1308 49.5598 57.4432 49.8887 57.6629C50.2176 57.8827 50.6043 58 50.9998 58C51.5301 57.9994 52.0384 57.7885 52.4134 57.4135C52.7883 57.0386 52.9992 56.5302 52.9998 56V56ZM32.9998 29V33C34.0607 33 35.0781 33.4214 35.8283 34.1716C36.5784 34.9217 36.9998 35.9391 36.9998 37C36.9998 38.0609 36.5784 39.0783 35.8283 39.8284C35.0781 40.5786 34.0607 41 32.9998 41V43H30.9998V41C29.9393 40.9988 28.9226 40.577 28.1727 39.8271C27.4228 39.0772 27.001 38.0605 26.9998 37H28.9998C29.0005 37.5302 29.2114 38.0386 29.5863 38.4135C29.9612 38.7885 30.4696 38.9994 30.9998 39V35C29.939 35 28.9215 34.5786 28.1714 33.8284C27.4213 33.0783 26.9998 32.0609 26.9998 31C26.9998 29.9391 27.4213 28.9217 28.1714 28.1716C28.9215 27.4214 29.939 27 30.9998 27V25H32.9998V27C34.0603 27.0012 35.0771 27.423 35.8269 28.1729C36.5768 28.9228 36.9986 29.9395 36.9998 31H34.9998C34.9992 30.4698 34.7883 29.9614 34.4133 29.5865C34.0384 29.2116 33.5301 29.0006 32.9998 29V29ZM30.9998 29C30.4694 29 29.9607 29.2107 29.5856 29.5858C29.2105 29.9609 28.9998 30.4696 28.9998 31C28.9998 31.5304 29.2105 32.0391 29.5856 32.4142C29.9607 32.7893 30.4694 33 30.9998 33V29ZM32.9998 35V39C33.5303 39 34.039 38.7893 34.414 38.4142C34.7891 38.0391 34.9998 37.5304 34.9998 37C34.9998 36.4696 34.7891 35.9609 34.414 35.5858C34.039 35.2107 33.5303 35 32.9998 35ZM35.9162 4.27701C41.7736 5.10491 47.2186 7.76607 51.4705 11.879C55.7224 15.9919 58.5629 21.3454 59.585 27.1721L61.5551 26.8279C60.6862 21.8696 58.5839 17.2097 55.4417 13.2771C52.2994 9.34446 48.2183 6.26558 43.5741 4.32392C38.9298 2.38227 33.8717 1.64025 28.8655 2.16618C23.8593 2.69211 19.0658 4.46909 14.9265 7.33351C14.714 7.48065 14.5668 7.70432 14.5156 7.95763C14.4645 8.21094 14.5134 8.47421 14.6521 8.69226L17.9902 13.9408C18.0629 14.0551 18.1581 14.1535 18.27 14.2299C18.3819 14.3063 18.5082 14.3592 18.6411 14.3854C18.7741 14.4115 18.911 14.4104 19.0435 14.382C19.176 14.3536 19.3014 14.2986 19.4119 14.2203C23.9454 10.9997 29.5424 9.64287 35.0473 10.4298C46.9406 12.1103 55.2498 23.1536 53.5688 35.047C53.301 36.9529 52.782 38.8149 52.0255 40.5845L51.0571 39.8514C50.909 39.7393 50.7327 39.6707 50.5478 39.6532C50.3629 39.6357 50.1768 39.67 50.0104 39.7523C49.8439 39.8346 49.7037 39.9616 49.6053 40.1191C49.507 40.2767 49.4544 40.4584 49.4536 40.6441L49.4088 50.6433C49.4081 50.7985 49.4436 50.9518 49.5124 51.091C49.5813 51.2301 49.6815 51.3514 49.8053 51.4451C49.9291 51.5388 50.0731 51.6023 50.2257 51.6308C50.3783 51.6592 50.5355 51.6517 50.6847 51.6089L60.2962 48.852C60.4747 48.8008 60.6354 48.7009 60.7603 48.5635C60.8852 48.4261 60.9694 48.2566 61.0034 48.074C61.0375 47.8915 61.02 47.703 60.953 47.5299C60.8859 47.3567 60.772 47.2056 60.624 47.0935L58.7183 45.651C61.1871 40.797 62.2971 35.3658 61.9308 29.9324L59.9355 30.0683C60.067 32.0199 59.995 33.9799 59.7208 35.9166C59.2531 39.2609 58.182 42.4925 56.5597 45.4541C56.4444 45.6645 56.4086 45.9093 56.4588 46.1439C56.509 46.3785 56.6418 46.5872 56.8331 46.732L57.8222 47.4809L51.4148 49.3184L51.4447 42.6528L51.8088 42.9278C51.9261 43.0165 52.0616 43.0783 52.2055 43.1087C52.3494 43.1391 52.4983 43.1374 52.6414 43.1037C52.7846 43.07 52.9186 43.0051 53.0338 42.9137C53.1491 42.8223 53.2427 42.7065 53.3081 42.5748C54.4386 40.2941 55.1952 37.8466 55.5491 35.3259C57.3838 22.3414 48.3123 10.2843 35.3271 8.45001C29.6753 7.64143 23.9217 8.90217 19.1259 12L16.8645 8.44413C22.5072 4.80898 29.2711 3.32953 35.9162 4.27701V4.27701Z" fill="white" fill-opacity="0.5"/>
</g>
</g>
</svg>
