<svg width="64" height="64" viewBox="0 0 64 64" fill="none" xmlns="http://www.w3.org/2000/svg">
<g id="growth 1" clip-path="url(#clip0_90_2223)">
<path id="Vector" d="M14.8571 51.4286H2.28564V64H14.8571V51.4286ZM12.3428 61.4857H4.79993V53.9428H12.3428V61.4857Z" fill="white" fill-opacity="0.5"/>
<path id="Vector_2" d="M30.8571 64V43.4286H18.2856V64H30.8571ZM20.7999 46H28.3428V61.4286H20.7999V46Z" fill="white" fill-opacity="0.5"/>
<path id="Vector_3" d="M45.7145 64V35.4286H33.1431V64H45.7145ZM35.6574 38.026H43.2002V61.4026H35.6574V38.026Z" fill="white" fill-opacity="0.5"/>
<path id="Vector_4" d="M49.1431 64H61.7145V26.2857H49.1431V64ZM51.6574 28.8H59.2002V61.4857H51.6574V28.8Z" fill="white" fill-opacity="0.5"/>
<path id="Vector_5" d="M49.6235 12.7593L54.6603 14.4239L33.2202 26.7317V15.5656C33.3862 15.5998 33.5551 15.6189 33.7247 15.6227C36.118 15.6227 39.0999 12.8125 41.7862 9.92974C43.9975 7.55072 45.8187 4.84249 47.1835 1.90379L47.9552 0.248283L46.1232 0.0879891C39.6499 -0.481181 34.2097 1.74101 31.9402 5.88234L31.9269 5.90987L31.9136 5.88233C29.6441 1.74163 24.2121 -0.47995 17.7305 0.0879763L15.8986 0.24827L16.6703 1.90378C18.0351 4.84247 19.8563 7.5507 22.0676 9.92972C24.7539 12.8131 27.7357 15.6226 30.1291 15.6226C30.2986 15.6189 30.4675 15.5998 30.6336 15.5656V28.2166L8 41.2095L9.29586 43.4286L55.4857 16.913L53.9789 21.3957L56.4328 22.2072L59.4286 13.2965L50.4419 10.3261L49.6235 12.7593ZM34.2135 7.10705C35.741 4.31881 39.4523 2.62884 43.9509 2.56937C42.8341 4.60099 41.4691 6.48843 39.8867 8.18903C35.102 13.3228 33.7714 13.0767 33.6767 13.0523C33.1128 12.681 32.8754 9.54903 34.2135 7.10705V7.10705ZM30.1771 13.0523C30.0836 13.0799 28.7493 13.3222 23.9671 8.18905C22.3847 6.48845 21.0197 4.60101 19.9029 2.5694C24.4009 2.62888 28.1134 4.31948 29.6403 7.10707C30.9784 9.54903 30.7409 12.681 30.1771 13.0523V13.0523Z" fill="white" fill-opacity="0.5"/>
</g>
<defs>
<clipPath id="clip0_90_2223">
<rect width="64" height="64" fill="white"/>
</clipPath>
</defs>
</svg>
